<svg id="visual" viewBox="0 0 1400 700" width="1400" height="700" xmlns="http://www.w3.org/2000/svg" xmlns:xlink="http://www.w3.org/1999/xlink" version="1.1"><rect x="0" y="0" width="1400" height="700" fill="#FFFFFF"></rect><defs><linearGradient id="grad1_0" x1="50%" y1="0%" x2="100%" y2="100%"><stop offset="10%" stop-color="#009473" stop-opacity="1"></stop><stop offset="90%" stop-color="#009473" stop-opacity="1"></stop></linearGradient></defs><defs><linearGradient id="grad1_1" x1="50%" y1="0%" x2="100%" y2="100%"><stop offset="10%" stop-color="#009473" stop-opacity="1"></stop><stop offset="90%" stop-color="#5eaf94" stop-opacity="1"></stop></linearGradient></defs><defs><linearGradient id="grad1_2" x1="50%" y1="0%" x2="100%" y2="100%"><stop offset="10%" stop-color="#96cab7" stop-opacity="1"></stop><stop offset="90%" stop-color="#5eaf94" stop-opacity="1"></stop></linearGradient></defs><defs><linearGradient id="grad1_3" x1="50%" y1="0%" x2="100%" y2="100%"><stop offset="10%" stop-color="#96cab7" stop-opacity="1"></stop><stop offset="90%" stop-color="#cae4da" stop-opacity="1"></stop></linearGradient></defs><defs><linearGradient id="grad1_4" x1="50%" y1="0%" x2="100%" y2="100%"><stop offset="10%" stop-color="#ffffff" stop-opacity="1"></stop><stop offset="90%" stop-color="#cae4da" stop-opacity="1"></stop></linearGradient></defs><defs><linearGradient id="grad2_0" x1="0%" y1="0%" x2="50%" y2="100%"><stop offset="10%" stop-color="#009473" stop-opacity="1"></stop><stop offset="90%" stop-color="#009473" stop-opacity="1"></stop></linearGradient></defs><defs><linearGradient id="grad2_1" x1="0%" y1="0%" x2="50%" y2="100%"><stop offset="10%" stop-color="#5eaf94" stop-opacity="1"></stop><stop offset="90%" stop-color="#009473" stop-opacity="1"></stop></linearGradient></defs><defs><linearGradient id="grad2_2" x1="0%" y1="0%" x2="50%" y2="100%"><stop offset="10%" stop-color="#5eaf94" stop-opacity="1"></stop><stop offset="90%" stop-color="#96cab7" stop-opacity="1"></stop></linearGradient></defs><defs><linearGradient id="grad2_3" x1="0%" y1="0%" x2="50%" y2="100%"><stop offset="10%" stop-color="#cae4da" stop-opacity="1"></stop><stop offset="90%" stop-color="#96cab7" stop-opacity="1"></stop></linearGradient></defs><defs><linearGradient id="grad2_4" x1="0%" y1="0%" x2="50%" y2="100%"><stop offset="10%" stop-color="#cae4da" stop-opacity="1"></stop><stop offset="90%" stop-color="#ffffff" stop-opacity="1"></stop></linearGradient></defs><g transform="translate(1400, 0)"><path d="M0 630C-43.1 610.6 -86.1 591.1 -133.5 585C-180.9 578.8 -232.6 585.9 -273.3 567.6C-314.1 549.4 -344 505.8 -374.7 469.9C-405.4 433.9 -437 405.6 -469.1 374.1C-501.2 342.5 -533.9 307.8 -555.9 267.7C-577.8 227.7 -589 182.3 -599.6 136.9C-610.1 91.4 -620.1 45.7 -630 0L0 0Z" fill="#e5f2ec"></path><path d="M0 504C-34.5 488.5 -68.9 472.9 -106.8 468C-144.7 463 -186.1 468.7 -218.7 454.1C-251.3 439.5 -275.2 404.6 -299.8 375.9C-324.3 347.2 -349.6 324.5 -375.3 299.3C-401 274 -427.2 246.2 -444.7 214.2C-462.3 182.1 -471.2 145.9 -479.7 109.5C-488.1 73.1 -496.1 36.5 -504 0L0 0Z" fill="#b0d7c8"></path><path d="M0 378C-25.8 366.3 -51.7 354.7 -80.1 351C-108.5 347.3 -139.5 351.5 -164 340.6C-188.5 329.6 -206.4 303.5 -224.8 281.9C-243.3 260.4 -262.2 243.4 -281.5 224.5C-300.7 205.5 -320.4 184.7 -333.5 160.6C-346.7 136.6 -353.4 109.4 -359.7 82.1C-366.1 54.8 -372 27.4 -378 0L0 0Z" fill="#7bbca5"></path><path d="M0 252C-17.2 244.2 -34.5 236.5 -53.4 234C-72.4 231.5 -93 234.3 -109.3 227C-125.7 219.7 -137.6 202.3 -149.9 188C-162.2 173.6 -174.8 162.3 -187.6 149.6C-200.5 137 -213.6 123.1 -222.4 107.1C-231.1 91.1 -235.6 72.9 -239.8 54.7C-244.1 36.5 -248 18.3 -252 0L0 0Z" fill="#3da183"></path><path d="M0 126C-8.6 122.1 -17.2 118.2 -26.7 117C-36.2 115.8 -46.5 117.2 -54.7 113.5C-62.8 109.9 -68.8 101.2 -74.9 94C-81.1 86.8 -87.4 81.1 -93.8 74.8C-100.2 68.5 -106.8 61.6 -111.2 53.5C-115.6 45.5 -117.8 36.5 -119.9 27.4C-122 18.3 -124 9.1 -126 0L0 0Z" fill="#009473"></path></g><g transform="translate(0, 700)"><path d="M0 -630C45.4 -619.3 90.8 -608.5 136.9 -599.6C182.9 -590.6 229.7 -583.4 271.6 -564C313.6 -544.6 350.7 -513 382.2 -479.3C413.7 -445.5 439.4 -409.7 472.2 -376.6C505 -343.5 544.9 -313 567.6 -273.3C590.3 -233.7 595.9 -184.8 603.5 -137.7C611 -90.6 620.5 -45.3 630 0L0 0Z" fill="#e5f2ec"></path><path d="M0 -504C36.3 -495.4 72.6 -486.8 109.5 -479.7C146.3 -472.5 183.7 -466.7 217.3 -451.2C250.9 -435.7 280.6 -410.4 305.8 -383.4C330.9 -356.4 351.5 -327.8 377.8 -301.3C404 -274.8 435.9 -250.4 454.1 -218.7C472.3 -187 476.7 -147.9 482.8 -110.2C488.8 -72.5 496.4 -36.3 504 0L0 0Z" fill="#b0d7c8"></path><path d="M0 -378C27.2 -371.6 54.5 -365.1 82.1 -359.7C109.7 -354.4 137.8 -350 163 -338.4C188.1 -326.8 210.4 -307.8 229.3 -287.6C248.2 -267.3 263.7 -245.8 283.3 -226C303 -206.1 326.9 -187.8 340.6 -164C354.2 -140.2 357.6 -110.9 362.1 -82.6C366.6 -54.4 372.3 -27.2 378 0L0 0Z" fill="#7bbca5"></path><path d="M0 -252C18.2 -247.7 36.3 -243.4 54.7 -239.8C73.2 -236.2 91.9 -233.4 108.6 -225.6C125.4 -217.8 140.3 -205.2 152.9 -191.7C165.5 -178.2 175.8 -163.9 188.9 -150.6C202 -137.4 218 -125.2 227 -109.3C236.1 -93.5 238.4 -73.9 241.4 -55.1C244.4 -36.3 248.2 -18.1 252 0L0 0Z" fill="#3da183"></path><path d="M0 -126C9.1 -123.9 18.2 -121.7 27.4 -119.9C36.6 -118.1 45.9 -116.7 54.3 -112.8C62.7 -108.9 70.1 -102.6 76.4 -95.9C82.7 -89.1 87.9 -81.9 94.4 -75.3C101 -68.7 109 -62.6 113.5 -54.7C118.1 -46.7 119.2 -37 120.7 -27.5C122.2 -18.1 124.1 -9.1 126 0L0 0Z" fill="#009473"></path></g></svg>